<svg xmlns="http://www.w3.org/2000/svg" width="22" height="20" viewBox="0 0 22 20">
    <path fill="#FFF" fill-rule="nonzero" d="M21.083 2.254c.166.467.047.995-.302 1.345L4.756 19.623a1.292 1.292 0 0 1-1.824 0 1.292 1.292 0 0 1 0-1.824l5.42-5.42-.018-.018a1.292 1.292 0 0 1 0-1.824l3.95-3.95a27.685 27.685 0 0 1 4.83-3.836c.843-.527 2.338-1.402 2.884-1.347a1.296 1.296 0 0 1 1.085.85zM4.092 7.606c-.007-.006-.015-.01-.022-.017L.124 3.643a.423.423 0 1 1 .6-.6l3.664 3.665h.001l.002.002a.264.264 0 1 0 .374-.374l-.003-.002L1.097 2.67a.424.424 0 1 1 .6-.6l3.665 3.665.002.002a.264.264 0 1 0 .374-.374c-.001 0-.002 0-.003-.002L2.071 1.696a.424.424 0 0 1 .6-.6l3.664 3.666.002.002a.264.264 0 1 0 .374-.374l-.003-.002L3.044.724a.424.424 0 1 1 .6-.6L7.588 4.07c.007.006.012.014.017.021.007.006.015.01.022.017.665.666.873 1.617.624 2.462l1.347 1.347-1.798 1.798L6.385 8.3a2.488 2.488 0 0 1-2.277-.671l-.016-.022zm9.604 4.396l5.665 5.665a1.29 1.29 0 0 1-1.824 1.824l-5.665-5.665 1.824-1.824z"/>
</svg>
