<?xml version="1.0" encoding="UTF-8"?>
<svg width="36px" height="45px" viewBox="0 0 36 45" version="1.1" xmlns="http://www.w3.org/2000/svg" xmlns:xlink="http://www.w3.org/1999/xlink">
    <!-- Generator: Sketch 47.1 (45422) - http://www.bohemiancoding.com/sketch -->
    <title>Group 12</title>
    <desc>Created with Sketch.</desc>
    <defs></defs>
    <g id="Page-1" stroke="none" stroke-width="1" fill="none" fill-rule="evenodd">
        <g id="Group-12">
            <g id="combined-shape" fill="#E6090F">
                <path d="M15.337,35.804 C6.659,34.517 0,27.036 0,18 C0,8.059 8.059,0 18,0 C27.941,0 36,8.059 36,18 C36,27.036 29.341,34.517 20.663,35.804 L18,39 L15.337,35.804 Z M18,45 C16.8954305,45 16,44.1045695 16,43 C16,41.8954305 16.8954305,41 18,41 C19.1045695,41 20,41.8954305 20,43 C20,44.1045695 19.1045695,45 18,45 Z" id="Shape"></path>
            </g>
            <g id="pin-icon-sights" transform="translate(8.000000, 11.000000)" fill="#FFFFFF">
                <path d="M15.405,11.981 C13.7637429,11.9793463 12.4336537,10.6492571 12.432,9.008 C12.4336537,7.3667429 13.7637429,6.03665366 15.405,6.035 C17.0462571,6.03665366 18.3763463,7.3667429 18.378,9.008 C18.3763463,10.6492571 17.0462571,11.9793463 15.405,11.981 M10,10.09 C9.61379589,10.09 9.25692857,9.88396258 9.06382651,9.54950001 C8.87072445,9.21503744 8.87072445,8.80296256 9.06382651,8.46849999 C9.25692857,8.13403742 9.61379589,7.92799999 10,7.928 C10.5970198,7.928 11.081,8.41198019 11.081,9.009 C11.081,9.60601981 10.5970198,10.09 10,10.09 M4.595,11.982 C2.9537429,11.9803463 1.62365366,10.6502571 1.622,9.009 C1.62365366,7.3677429 2.9537429,6.03765366 4.595,6.036 C6.2362571,6.03765366 7.56634634,7.3677429 7.568,9.009 C7.56634634,10.6502571 6.2362571,11.9803463 4.595,11.982 M18.655,5.764 L18.657,5.763 L13.502,0.56 C13.1486838,0.201530547 12.6663216,-0.000204168215 12.163,0 L12.159,0 C11.653,0 11.179,0.197 10.821,0.554 L10.191,1.184 C10.1403586,1.23468449 10.0716482,1.26316237 10,1.26316237 C9.92835176,1.26316237 9.85964141,1.23468449 9.809,1.184 L9.179,0.554 C8.82511527,0.198321086 8.34373757,-0.00114282382 7.842,-2.08721624e-16 L7.837,-2.08721624e-16 C7.33,0.001 6.854,0.2 6.497,0.56 L1.344,5.762 L1.346,5.763 C0.483832575,6.6227502 -0.000507201901,7.79041928 -5.29395592e-23,9.008 C0.00275568533,11.5446061 2.05839389,13.6002443 4.595,13.603 C6.33413757,13.600981 7.92337828,12.6181051 8.702,11.063 C9.49390506,11.5671426 10.5060949,11.5671426 11.298,11.063 C12.0766217,12.6181051 13.6658624,13.600981 15.405,13.603 C17.9416061,13.6002443 19.9972443,11.5446061 20,9.008 C20.0007722,7.79056315 19.5168006,6.62291438 18.655,5.763" id="Shape"></path>
            </g>
        </g>
    </g>
</svg>