<?xml version="1.0" encoding="UTF-8"?>
<svg width="36px" height="45px" viewBox="0 0 36 45" version="1.1" xmlns="http://www.w3.org/2000/svg" xmlns:xlink="http://www.w3.org/1999/xlink">
    <!-- Generator: Sketch 47.1 (45422) - http://www.bohemiancoding.com/sketch -->
    <title>Group 10</title>
    <desc>Created with Sketch.</desc>
    <defs></defs>
    <g id="Page-1" stroke="none" stroke-width="1" fill="none" fill-rule="evenodd">
        <g id="Group-10">
            <g id="combined-shape-(2)" fill="#E13CA5">
                <path d="M15.337,35.804 C6.659,34.517 0,27.036 0,18 C0,8.059 8.059,0 18,0 C27.941,0 36,8.059 36,18 C36,27.036 29.341,34.517 20.663,35.804 L18,39 L15.337,35.804 Z M18,45 C16.8954305,45 16,44.1045695 16,43 C16,41.8954305 16.8954305,41 18,41 C19.1045695,41 20,41.8954305 20,43 C20,44.1045695 19.1045695,45 18,45 Z" id="Shape"></path>
            </g>
            <g id="pin-icon-restaurant" transform="translate(7.000000, 8.000000)" fill-rule="nonzero" fill="#FFFFFF">
                <path d="M21.083,2.254 C21.249,2.721 21.13,3.249 20.781,3.599 L4.756,19.623 C4.25180664,20.1254517 3.43619336,20.1254517 2.932,19.623 C2.42954825,19.1188066 2.42954825,18.3031934 2.932,17.799 L8.352,12.379 L8.334,12.361 C7.83154825,11.8568066 7.83154825,11.0411934 8.334,10.537 L12.284,6.587 C13.7460919,5.13241836 15.3661436,3.84576863 17.114,2.751 C17.957,2.224 19.452,1.349 19.998,1.404 C20.4928388,1.45558619 20.914467,1.785894 21.083,2.254 L21.083,2.254 Z M4.092,7.606 C4.085,7.6 4.077,7.596 4.07,7.589 L0.124,3.643 C0.0168203204,3.53582032 -0.0250381104,3.37960254 0.0141923738,3.23319238 C0.0534228581,3.08678221 0.167782213,2.97242286 0.314192376,2.93319237 C0.46060254,2.89396189 0.616820324,2.93582032 0.724,3.043 L4.388,6.708 L4.389,6.708 L4.391,6.71 C4.49427725,6.81327725 4.66172275,6.81327725 4.765,6.71 C4.86827725,6.60672275 4.86827725,6.43927725 4.765,6.336 L4.762,6.334 L1.097,2.67 C0.98982032,2.56282032 0.94796189,2.40660254 0.987192374,2.26019238 C1.02642286,2.11378221 1.14078221,1.99942286 1.28719238,1.96019237 C1.43360254,1.92096189 1.58982032,1.96282032 1.697,2.07 L5.362,5.735 L5.364,5.737 C5.46727725,5.84027725 5.63472275,5.84027725 5.738,5.737 C5.84127725,5.63372275 5.84127725,5.46627725 5.738,5.363 C5.737,5.363 5.736,5.363 5.735,5.361 L2.071,1.696 C1.90531458,1.53031458 1.90531458,1.26168542 2.071,1.096 C2.23668542,0.930314575 2.50531458,0.930314575 2.671,1.096 L6.335,4.762 L6.337,4.764 C6.44027725,4.86727725 6.60772275,4.86727725 6.711,4.764 C6.81427725,4.66072275 6.81427725,4.49327725 6.711,4.39 L6.708,4.388 L3.044,0.724 C2.93682032,0.616820324 2.89496188,0.460602539 2.93419237,0.314192374 C2.97342285,0.167782209 3.08778221,0.0534228527 3.23419237,0.0141923688 C3.38060254,-0.025038115 3.53682032,0.0168203177 3.644,0.124 L7.588,4.07 C7.595,4.076 7.6,4.084 7.605,4.091 C7.612,4.097 7.62,4.101 7.627,4.108 C8.292,4.774 8.5,5.725 8.251,6.57 L9.598,7.917 L7.8,9.715 L6.385,8.3 C5.56135099,8.47617682 4.70449064,8.22367208 4.108,7.629 L4.092,7.607 L4.092,7.606 Z M13.696,12.002 L19.361,17.667 C19.8483363,18.1733969 19.8406329,18.9767169 19.3436749,19.4736749 C18.8467169,19.9706329 18.0433969,19.9783363 17.537,19.491 L11.872,13.826 L13.696,12.002 L13.696,12.002 Z" id="Shape"></path>
            </g>
        </g>
    </g>
</svg>