<?xml version="1.0" encoding="UTF-8"?>
<svg width="36px" height="45px" viewBox="0 0 36 45" version="1.1" xmlns="http://www.w3.org/2000/svg" xmlns:xlink="http://www.w3.org/1999/xlink">
    <!-- Generator: Sketch 47.1 (45422) - http://www.bohemiancoding.com/sketch -->
    <title>Group 13</title>
    <desc>Created with Sketch.</desc>
    <defs></defs>
    <g id="Page-1" stroke="none" stroke-width="1" fill="none" fill-rule="evenodd">
        <g id="Group-13">
            <g id="combined-shape-(1)" fill="#5FC3AE">
                <path d="M15.337,35.804 C6.659,34.517 0,27.036 0,18 C0,8.059 8.059,0 18,0 C27.941,0 36,8.059 36,18 C36,27.036 29.341,34.517 20.663,35.804 L18,39 L15.337,35.804 Z M18,45 C16.8954305,45 16,44.1045695 16,43 C16,41.8954305 16.8954305,41 18,41 C19.1045695,41 20,41.8954305 20,43 C20,44.1045695 19.1045695,45 18,45 Z" id="Shape"></path>
            </g>
            <g id="pin-icon-music" transform="translate(8.000000, 8.000000)" fill="#FFFFFF">
                <path d="M16.637,16.542 C16.5375072,16.642151 16.4021703,16.6984709 16.261,16.6984709 C16.1198297,16.6984709 15.9844928,16.642151 15.885,16.542 L13.75,14.409 C13.564852,14.1975393 13.5753091,13.8787573 13.7739175,13.6798852 C13.9725259,13.481013 14.2912938,13.4701328 14.503,13.655 L16.637,15.789 C16.7372112,15.8886641 16.7935554,16.0241663 16.7935554,16.1655 C16.7935554,16.3068337 16.7372112,16.4423359 16.637,16.542 M10.067,14.472 C8.87329805,14.474619 7.72804729,14.0001014 6.886,13.154 C6.03927445,12.3119615 5.56466807,11.1661364 5.568,9.972 C5.568,8.772 6.036,7.642 6.886,6.792 C7.72783281,5.94569921 8.87331039,5.47144773 10.067,5.475 C11.27,5.475 12.398,5.942 13.247,6.792 C14.0947223,7.63271242 14.5701621,8.77809028 14.567,9.972 C14.5703619,11.1665361 14.0949324,12.3126092 13.247,13.154 C12.4055762,14.0004208 11.2604878,14.4750204 10.067,14.472 M3.458,3.363 C3.55753182,3.26254101 3.69308362,3.20602513 3.8345,3.20602513 C3.97591638,3.20602513 4.11146818,3.26254101 4.211,3.363 L6.345,5.497 C6.49803085,5.64878596 6.54412682,5.87801901 6.46166313,6.07716006 C6.37919944,6.27630111 6.1845382,6.40583735 5.969,6.405 C5.82745699,6.4053708 5.69153508,6.34963563 5.591,6.25 L3.457,4.115 C3.25030792,3.90678019 3.25075488,3.57066937 3.458,3.363 M10.001,0 C4.478,0 0,4.477 0,10 C0,15.522 4.478,20 10,20 C15.522,20 20,15.522 20,10 C20,4.477 15.522,0 10,0 M10.427,10.332 C10.3012012,10.4735527 10.1073262,10.5337457 9.9234787,10.4883301 C9.73963116,10.4429145 9.59608553,10.2993688 9.55066991,10.1155213 C9.50525429,9.93167375 9.56544734,9.73779882 9.707,9.612 C9.9088284,9.43263371 10.2154833,9.44166079 10.4064113,9.63258875 C10.5973392,9.8235167 10.6063663,10.1301716 10.427,10.332 M12.495,7.544 C11.852591,6.89772339 10.9782389,6.53545063 10.067,6.538 C9.15610753,6.53571802 8.28216499,6.89797026 7.64,7.544 C6.9932364,8.18583477 6.63024692,9.05981837 6.632,9.971 C6.632,10.888 6.992,11.751 7.64,12.4 C8.28216499,13.0460297 9.15610753,13.408282 10.067,13.406 C10.9782389,13.4085494 11.852591,13.0462766 12.495,12.4 C13.14124,11.757157 13.503482,10.8825191 13.501,9.971 C13.501,9.054 13.144,8.193 12.495,7.544" id="Shape"></path>
            </g>
        </g>
    </g>
</svg>