<?xml version="1.0" encoding="UTF-8"?>
<svg width="36px" height="45px" viewBox="0 0 36 45" version="1.1" xmlns="http://www.w3.org/2000/svg" xmlns:xlink="http://www.w3.org/1999/xlink">
    <!-- Generator: Sketch 47.1 (45422) - http://www.bohemiancoding.com/sketch -->
    <title>Group 9</title>
    <desc>Created with Sketch.</desc>
    <defs></defs>
    <g id="Page-1" stroke="none" stroke-width="1" fill="none" fill-rule="evenodd">
        <g id="Group-9">
            <g id="combined-shape-(4)" fill="#000000">
                <path d="M15.337,35.804 C6.659,34.517 0,27.036 0,18 C0,8.059 8.059,0 18,0 C27.941,0 36,8.059 36,18 C36,27.036 29.341,34.517 20.663,35.804 L18,39 L15.337,35.804 Z M18,45 C16.8954305,45 16,44.1045695 16,43 C16,41.8954305 16.8954305,41 18,41 C19.1045695,41 20,41.8954305 20,43 C20,44.1045695 19.1045695,45 18,45 Z" id="Shape"></path>
            </g>
            <g id="pin-icon-marc-jacobs-(1)" transform="translate(12.000000, 7.000000)" fill="#FFFFFF">
                <path d="M9.28,6.476 L9.28,4.97 C9.28,4.468 9.227,3.615 8.548,3.088 C8.358,2.937 7.76,2.56 6.104,2.56 C4.61,2.56 3.986,2.912 3.741,3.113 C3.008,3.69 2.927,4.619 2.927,5.297 L2.927,13.63 L0.076,13.63 L0.076,5.171 C0.076,4.041 0.076,2.535 1.325,1.331 C2.655,0.05 4.936,0 6.212,0 C7.815,0 9.769,0.075 10.992,1.33 C12.132,2.485 12.132,3.69 12.132,4.77 L12.132,6.476 L9.281,6.476 L9.28,6.476 Z M2.852,17.03 C2.852,17.532 2.906,18.385 3.585,18.912 C3.775,19.063 4.373,19.44 6.029,19.44 C7.523,19.44 8.147,19.088 8.391,18.887 C9.125,18.31 9.206,17.381 9.206,16.703 L9.206,8.37 L12.057,8.37 L12.057,16.83 C12.057,17.96 12.057,19.466 10.808,20.67 C9.477,21.95 7.196,22 5.92,22 C4.318,22 2.363,21.925 1.142,20.67 C0,19.515 0,18.31 0,17.23 L0,15.524 L2.851,15.524 L2.851,17.03 L2.852,17.03 Z" id="Shape"></path>
            </g>
        </g>
    </g>
</svg>