<?xml version="1.0" encoding="UTF-8"?>
<svg width="36px" height="45px" viewBox="0 0 36 45" version="1.1" xmlns="http://www.w3.org/2000/svg" xmlns:xlink="http://www.w3.org/1999/xlink">
    <!-- Generator: Sketch 47.1 (45422) - http://www.bohemiancoding.com/sketch -->
    <title>Group 11</title>
    <desc>Created with Sketch.</desc>
    <defs></defs>
    <g id="Page-1" stroke="none" stroke-width="1" fill="none" fill-rule="evenodd">
        <g id="Group-11">
            <g id="combined-shape-(3)" fill="#3CB6E1">
                <path d="M15.337,35.804 C6.659,34.517 0,27.036 0,18 C0,8.059 8.059,0 18,0 C27.941,0 36,8.059 36,18 C36,27.036 29.341,34.517 20.663,35.804 L18,39 L15.337,35.804 Z M18,45 C16.8954305,45 16,44.1045695 16,43 C16,41.8954305 16.8954305,41 18,41 C19.1045695,41 20,41.8954305 20,43 C20,44.1045695 19.1045695,45 18,45 Z" id="Shape"></path>
            </g>
            <g id="pin-icon-shopping-(2)" transform="translate(10.000000, 8.000000)" fill-rule="nonzero" fill="#FFFFFF">
                <path d="M15.11,5.876 C15.084,5.428 14.694,5.076 14.222,5.076 L12.444,5.076 L12.444,4.231 C12.444,1.898 10.451,0 8,0 C5.55,0 3.556,1.898 3.556,4.23 L3.556,5.077 L1.778,5.077 C1.306,5.077 0.916,5.427 0.89,5.877 L0.001,17.107 C-0.0113949742,17.341236 0.0766255284,17.5696529 0.243,17.735 C0.414899072,17.9057767 0.647692974,18.001125 0.89,18 L15.11,18 C15.351961,18.0008592 15.5843461,17.9055309 15.756,17.735 C15.9224837,17.5697241 16.0105238,17.3412564 15.998,17.107 L15.108,5.877 L15.11,5.876 Z M5.334,4.231 C5.334,2.831 6.53,1.692 8,1.692 C9.471,1.692 10.667,2.831 10.667,4.231 L10.667,5.077 L5.334,5.077 L5.334,4.23 L5.334,4.231 Z M1.828,16.308 L2.618,6.769 L13.381,6.769 L14.171,16.308 L1.828,16.308 Z" id="Shape"></path>
            </g>
        </g>
    </g>
</svg>