<svg xmlns="http://www.w3.org/2000/svg" width="14" height="14" viewBox="0 0 14 14">
    <path fill="#000" fill-rule="evenodd" d="M13.77 13.77a.784.784 0 0 1-1.11 0l-2.825-2.465a6.22 6.22 0 0 1-3.611 1.143A6.186 6.186 0 0 1 0 6.224 6.186 6.186 0 0 1 6.224 0a6.188 6.188 0 0 1 6.224 6.224 6.208 6.208 0 0 1-1.452 4.016l2.774 2.42a.785.785 0 0 1 0 1.11zM6.224 1.556c-2.818 0-4.668 1.85-4.668 4.668 0 2.817 1.85 4.668 4.668 4.668 2.816 0 4.663-1.85 4.668-4.668.005-2.817-1.85-4.668-4.668-4.668z"/>
</svg>
