<svg xmlns="http://www.w3.org/2000/svg" width="16" height="16" viewBox="0 0 16 16">
    <path fill="#000" fill-rule="nonzero" d="M.178 2.894a1.24 1.24 0 0 1 .285-.41L2.703.231A.794.794 0 0 1 3.256 0c.315 0 .537.145.667.436l1.833 3.428c.083.19.106.392.07.605a1.01 1.01 0 0 1-.275.535l-.827.836c-.024.018-.045.054-.062.107a.34.34 0 0 0-.036.125l.293.81c.374.719.988 1.505 1.842 2.36.853.855 1.639 1.463 2.357 1.825.355.184.628.285.818.303.059 0 .133-.033.222-.098l.952-.97a.995.995 0 0 1 .72-.285c.16 0 .312.035.454.106l3.3 1.942c.219.124.355.311.408.56a.765.765 0 0 1-.23.677l-2.25 2.235c-.244.249-.54.4-.89.454L12.31 16c-.83 0-1.77-.217-2.82-.65-1.731-.724-3.457-1.95-5.176-3.677C2.34 9.702 1.03 7.746.382 5.805A7.012 7.012 0 0 1 .018 4.06a3.356 3.356 0 0 1 0-.703 1.54 1.54 0 0 1 .16-.463z"/>
</svg>
