<svg xmlns="http://www.w3.org/2000/svg" width="20" height="14" viewBox="0 0 20 14">
    <path fill="#000" fill-rule="nonzero" d="M17.474 7.162C18.947 7.552 20 8.937 20 10.516 20 12.442 18.484 14 16.61 14H7.706c-1.431 0-2.61-1.19-2.61-2.683 0-.281.042-.541.126-.8a3.84 3.84 0 0 1-1.916-3.333c0-2.099 1.663-3.808 3.706-3.808 1.6 0 2.947 1.038 3.473 2.488.758-.93 1.916-1.515 3.137-1.515 1.726 0 3.284 1.147 3.853 2.813zM5.664 9.651a2.6 2.6 0 0 1 1.852-1.017 2.736 2.736 0 0 1 2.168-2.12c-.295-1.256-1.39-2.165-2.673-2.165-1.516 0-2.758 1.277-2.758 2.835 0 1.06.568 1.99 1.41 2.467zm10.947 3.375c1.326 0 2.42-1.125 2.442-2.531 0-1.212-.842-2.25-2.021-2.467a.43.43 0 0 1-.38-.346c-.378-1.407-1.62-2.38-3.03-2.38a3.135 3.135 0 0 0-2.843 1.86.464.464 0 0 1-.484.282h-.169c-.926 0-1.684.757-1.726 1.709 0 .13-.063.26-.168.346a.445.445 0 0 1-.358.108h-.169c-.926 0-1.663.78-1.663 1.71 0 .952.758 1.71 1.663 1.71h8.906zM6.989 2.596c-.252 0-.463-.216-.484-.497V.498a.483.483 0 1 1 .968 0v1.6c0 .282-.21.499-.484.499zM3.158 3.939L2.042 2.791a.493.493 0 0 1 0-.692.461.461 0 0 1 .674 0l1.116 1.147c.19.194.19.497 0 .692a.414.414 0 0 1-.337.152.49.49 0 0 1-.337-.152zm-.632 3.268c0 .26-.21.476-.484.497H.484A.483.483 0 0 1 0 7.206c0-.282.21-.498.484-.498h1.558c.274 0 .484.216.484.498zm.632 3.245a.461.461 0 0 1 .674 0c.19.195.19.498 0 .693L2.716 12.29a.414.414 0 0 1-.337.151.49.49 0 0 1-.337-.151.493.493 0 0 1 0-.693l1.116-1.147zm7.347-6.361a.414.414 0 0 1-.337-.152.493.493 0 0 1 0-.692l1.116-1.147a.461.461 0 0 1 .674 0c.19.195.19.498 0 .692l-1.116 1.147a.414.414 0 0 1-.337.152z"/>
</svg>
