<svg xmlns="http://www.w3.org/2000/svg" width="16" height="16" viewBox="0 0 16 16">
    <path fill="#000" fill-rule="nonzero" d="M10.213.903a.891.891 0 0 0 .265.638l1.952 1.937H8.973c-1.595.002-2.887 1.285-2.89 2.868v2.95c0 .499.407.902.909.902a.905.905 0 0 0 .908-.901V6.338a1.07 1.07 0 0 1 1.073-1.064h3.457L10.478 7.21a.899.899 0 0 0-.002 1.278.915.915 0 0 0 1.287.002l3.503-3.476a.897.897 0 0 0 0-1.274L11.763.265a.912.912 0 0 0-.99-.196.9.9 0 0 0-.56.834zm-7.984 1.33A2.224 2.224 0 0 0 0 4.445v9.342A2.224 2.224 0 0 0 2.229 16H13.77A2.224 2.224 0 0 0 16 13.788v-4.82a.905.905 0 0 0-.908-.9.905.905 0 0 0-.909.9v4.82a.412.412 0 0 1-.412.409H2.23a.416.416 0 0 1-.422-.409V4.446a.41.41 0 0 1 .422-.41h3.24a.905.905 0 0 0 .908-.902.905.905 0 0 0-.908-.902h-3.24z"/>
</svg>
