<svg xmlns="http://www.w3.org/2000/svg" width="16" height="18" viewBox="0 0 16 18">
    <path fill="#FFF" fill-rule="nonzero" d="M15.11 5.876c-.026-.448-.416-.8-.888-.8h-1.778v-.845C12.444 1.898 10.451 0 8 0 5.55 0 3.556 1.898 3.556 4.23v.847H1.778c-.472 0-.862.35-.888.8l-.889 11.23a.824.824 0 0 0 .242.628A.912.912 0 0 0 .89 18H15.11a.912.912 0 0 0 .646-.265.823.823 0 0 0 .242-.628l-.89-11.23zM5.334 4.231c0-1.4 1.196-2.539 2.666-2.539 1.471 0 2.667 1.139 2.667 2.539v.846H5.334V4.23zM1.828 16.308l.79-9.539h10.763l.79 9.539H1.828z"/>
</svg>
