<svg xmlns="http://www.w3.org/2000/svg" width="20" height="14" viewBox="0 0 20 14">
    <path fill="#FFF" fill-rule="evenodd" d="M15.405 11.981a2.976 2.976 0 0 1-2.973-2.973 2.976 2.976 0 0 1 2.973-2.973 2.976 2.976 0 0 1 2.973 2.973 2.976 2.976 0 0 1-2.973 2.973M10 10.09a1.081 1.081 0 1 1 0-2.162 1.081 1.081 0 0 1 0 2.162m-5.405 1.892a2.976 2.976 0 0 1-2.973-2.973 2.976 2.976 0 0 1 2.973-2.973 2.976 2.976 0 0 1 2.973 2.973 2.976 2.976 0 0 1-2.973 2.973m14.06-6.218l.002-.001L13.502.56A1.879 1.879 0 0 0 12.163 0h-.004c-.506 0-.98.197-1.338.554l-.63.63a.27.27 0 0 1-.382 0l-.63-.63A1.88 1.88 0 0 0 7.842 0h-.005c-.507.001-.983.2-1.34.56L1.344 5.762l.002.001A4.58 4.58 0 0 0 0 9.008a4.6 4.6 0 0 0 4.595 4.595 4.599 4.599 0 0 0 4.107-2.54 2.417 2.417 0 0 0 2.596 0 4.599 4.599 0 0 0 4.107 2.54A4.6 4.6 0 0 0 20 9.008a4.58 4.58 0 0 0-1.345-3.245"/>
</svg>
