<svg xmlns="http://www.w3.org/2000/svg" width="20" height="20" viewBox="0 0 20 20">
    <path fill="#FFF" fill-rule="evenodd" d="M16.637 16.542a.53.53 0 0 1-.752 0l-2.135-2.133a.534.534 0 0 1 .753-.754l2.134 2.134a.531.531 0 0 1 0 .753m-6.57-2.07a4.474 4.474 0 0 1-3.181-1.318 4.47 4.47 0 0 1-1.318-3.182c0-1.2.468-2.33 1.318-3.18a4.468 4.468 0 0 1 3.181-1.317c1.203 0 2.331.467 3.18 1.317a4.462 4.462 0 0 1 1.32 3.18 4.465 4.465 0 0 1-1.32 3.182 4.468 4.468 0 0 1-3.18 1.318M3.458 3.363a.53.53 0 0 1 .753 0l2.134 2.134a.531.531 0 0 1-.376.908.535.535 0 0 1-.378-.155L3.457 4.115a.533.533 0 0 1 .001-.752M10.001 0C4.478 0 0 4.477 0 10c0 5.522 4.478 10 10 10s10-4.478 10-10c0-5.523-4.478-10-10-10m.427 10.332a.51.51 0 1 1-.72-.72.51.51 0 0 1 .72.72m2.068-2.788a3.41 3.41 0 0 0-2.428-1.006A3.41 3.41 0 0 0 7.64 7.544a3.41 3.41 0 0 0-1.008 2.427c0 .917.36 1.78 1.008 2.429a3.41 3.41 0 0 0 2.427 1.006 3.41 3.41 0 0 0 2.428-1.006 3.413 3.413 0 0 0 1.006-2.429c0-.917-.357-1.778-1.006-2.427"/>
</svg>
