<svg xmlns="http://www.w3.org/2000/svg" width="13" height="22" viewBox="0 0 13 22">
    <path fill="#FFF" fill-rule="evenodd" d="M9.28 6.476V4.97c0-.502-.053-1.355-.732-1.882-.19-.151-.788-.528-2.444-.528-1.494 0-2.118.352-2.363.553-.733.577-.814 1.506-.814 2.184v8.333H.076V5.171c0-1.13 0-2.636 1.249-3.84C2.655.05 4.936 0 6.212 0c1.603 0 3.557.075 4.78 1.33 1.14 1.155 1.14 2.36 1.14 3.44v1.706H9.281zM2.852 17.03c0 .502.054 1.355.733 1.882.19.151.788.528 2.444.528 1.494 0 2.118-.352 2.362-.553.734-.577.815-1.506.815-2.184V8.37h2.851v8.46c0 1.13 0 2.636-1.249 3.84C9.477 21.95 7.196 22 5.92 22c-1.602 0-3.557-.075-4.778-1.33C0 19.515 0 18.31 0 17.23v-1.706h2.851v1.506z"/>
</svg>
