<svg xmlns="http://www.w3.org/2000/svg" width="11" height="16" viewBox="0 0 11 16">
    <path fill="#000" fill-rule="nonzero" d="M10.85 3.509c.185.269.202.604.033.823a.667.667 0 0 1-.59.319c-.068 0-.152-.017-.236-.034h-.017l-.557-.185v11.266a.302.302 0 0 1-.304.302H7.24a.302.302 0 0 1-.304-.302v-3.09s-.034-.688-.506-1.46c-.523-.873-1.384-1.494-2.531-1.83l.017.504c0 .42-.17.671-.523.755-.051.017-.119.017-.17.017-.168 0-.387-.05-.607-.32L.067 7.069C0 7.001-.017 6.9.017 6.8a.303.303 0 0 1 .202-.202l3.847-1.293a.734.734 0 0 1 .321-.067c.22 0 .422.084.54.235 0 .017.017.017.017.034a.76.76 0 0 1 0 .84l-.32.453a6.702 6.702 0 0 1 2.311 1.108V4.449l-.506.168h-.017c-.084.017-.152.034-.236.034a.714.714 0 0 1-.59-.303c-.018 0-.018-.016-.018-.016-.169-.235-.135-.571.068-.84L7.98.134A.32.32 0 0 1 8.234 0c.101 0 .203.05.253.134L10.85 3.51z"/>
</svg>
