<svg xmlns="http://www.w3.org/2000/svg" width="11" height="20" viewBox="0 0 11 20">
    <path fill="#000" fill-rule="nonzero" d="M3.241 12.408c.205.148 1.29.907 1.742 1.392-.103.548-.205 1.054-.39 1.434-.47.949-1.987 4.197-2.007 4.218a.976.976 0 0 1-.86.548.985.985 0 0 1-.41-.105c-.472-.232-.656-.823-.43-1.308.02-.042 1.536-3.29 2.007-4.239.143-.316.266-1.223.348-1.94zm7.478-2.763c.328.275.369.738.123 1.097a.754.754 0 0 1-.574.274.798.798 0 0 1-.45-.169c-.267-.21-1.64-1.37-2.09-2.108-.123-.19-.205-.401-.328-.654-.123-.253-.246-.506-.369-.738-.389 1.729-.389 4.513-.389 4.513.635.696 1.639 1.961 1.864 2.51.267.632 1.496 4.154 1.557 4.301a.965.965 0 0 1-.532 1.266 1.014 1.014 0 0 1-.349.063c-.368 0-.737-.253-.88-.633-.451-1.16-1.332-3.732-1.537-4.217-.266-.612-1.557-1.962-2.397-2.552-.512-.359-1.414-.907-1.455-1.434-.061-.823-.184-2.763.144-4.176-.328.316-.553.654-.615.802-.225.485-.86 2.404-.983 2.825a.746.746 0 0 1-.717.549c-.082 0-.144 0-.205-.021-.39-.106-.615-.528-.512-.928.123-.443.778-2.447 1.065-3.08.307-.632 1.578-2.403 3.524-2.361.287 0 1.209.02 1.209.02 1.72 0 2.499 1.71 2.909 2.637.082.19.164.38.225.485.246.38 1.168 1.244 1.762 1.73zM7.281 2.064c-.019 1.12-.969 2.012-2.122 1.993-1.153-.02-2.072-.943-2.053-2.063C3.125.874 4.074-.018 5.227 0 6.38.02 7.3.944 7.281 2.064z"/>
</svg>
